<svg width="31" height="29" viewBox="0 0 31 29" fill="none" xmlns="http://www.w3.org/2000/svg">
<path d="M21.6677 4.71251L26.5222 9.8215C26.7267 10.0367 26.7267 10.3879 26.5222 10.6031L14.7681 22.9734L9.77361 23.5568C9.10625 23.6361 8.54115 23.0414 8.61649 22.3391L9.17083 17.0828L20.925 4.71251C21.1295 4.49728 21.4632 4.49728 21.6677 4.71251ZM30.3865 3.41544L27.7601 0.651379C26.942 -0.209558 25.6127 -0.209558 24.7892 0.651379L22.884 2.65646C22.6795 2.87169 22.6795 3.22286 22.884 3.4381L27.7385 8.54708C27.9431 8.76232 28.2767 8.76232 28.4813 8.54708L30.3865 6.542C31.2045 5.6754 31.2045 4.27638 30.3865 3.41544ZM20.6667 19.609V25.375H3.44444V7.25001H15.8122C15.9844 7.25001 16.1458 7.17638 16.2696 7.05177L18.4224 4.78614C18.8314 4.35568 18.5408 3.62501 17.9649 3.62501H2.58333C1.15712 3.62501 0 4.84279 0 6.34376V26.2813C0 27.7822 1.15712 29 2.58333 29H21.5278C22.954 29 24.1111 27.7822 24.1111 26.2813V17.3434C24.1111 16.7373 23.4168 16.4371 23.0078 16.8619L20.855 19.1276C20.7366 19.2578 20.6667 19.4277 20.6667 19.609Z" fill="#D5853B"/>
</svg>
