<svg width="25" height="26" viewBox="0 0 25 26" fill="none" xmlns="http://www.w3.org/2000/svg">
<path d="M24.7812 13.0498C24.7812 12.0146 24.6975 11.2592 24.5165 10.4758H12.7435V15.1482H19.6539C19.5147 16.3093 18.7623 18.058 17.0904 19.233L17.0669 19.3895L20.7893 22.2849L21.0472 22.3107C23.4157 20.1144 24.7812 16.8829 24.7812 13.0498Z" fill="#4285F4"/>
<path d="M12.7435 25.3602C16.129 25.3602 18.9712 24.2411 21.0472 22.3106L17.0904 19.2329C16.0315 19.9743 14.6104 20.4919 12.7435 20.4919C9.42755 20.4919 6.6132 18.2957 5.60996 15.26L5.46291 15.2725L1.59231 18.2802L1.54169 18.4215C3.60368 22.5343 7.83918 25.3602 12.7435 25.3602Z" fill="#34A853"/>
<path d="M5.60996 15.2602C5.34524 14.4768 5.19205 13.6374 5.19205 12.7701C5.19205 11.9027 5.34524 11.0634 5.59603 10.28L5.58902 10.1131L1.66991 7.05713L1.54168 7.11837C0.691837 8.82508 0.204193 10.7416 0.204193 12.7701C0.204193 14.7985 0.691837 16.715 1.54168 18.4217L5.60996 15.2602Z" fill="#FBBC05"/>
<path d="M12.7435 5.04792C15.098 5.04792 16.6863 6.06913 17.5919 6.92253L21.1308 3.45317C18.9574 1.42474 16.129 0.179688 12.7435 0.179688C7.83917 0.179688 3.60368 3.0055 1.54169 7.11831L5.59603 10.2799C6.6132 7.24426 9.42755 5.04792 12.7435 5.04792Z" fill="#EB4335"/>
</svg>
